# xmcd
#
# Track frame offsets:
#	150
#	17335
#	28040
#	40980
#	55655
#	65827
#	78612
#	90185
#	105927
#	119355
#	130290
#
# Disc length: 1996 seconds
#
# Revision: 2
# Processed by: cddbd v1.5.1PL0 Copyright (c) Steve Scherf et al.
# Submitted via: Audio-CD-Archiv 4.00.511
#
DISCID=8307ca0b
DTITLE=Williamson, Debbie - Weepin' Willow Blues
DYEAR=1996
DGENRE=country
TTITLE0=unbekannt - Weepin' Willow Blues
TTITLE1=unbekannt - Till I See You
TTITLE2=unbekannt - Love Among The Dandelion
TTITLE3=unbekannt - Fool Such As I
TTITLE4=unbekannt - I'm Waiting To Hear You Call Me Darlin'
TTITLE5=unbekannt - Ready For The Times
TTITLE6=unbekannt - I Don't Know You
TTITLE7=unbekannt - Where Else Could Your Heart Be
TTITLE8=unbekannt - Bring Back The Good Times
TTITLE9=unbekannt - In Care Of The Blues
TTITLE10=unbekannt - How Much Do You Love Me
EXTD=
EXTT0=
EXTT1=
EXTT2=
EXTT3=
EXTT4=
EXTT5=
EXTT6=
EXTT7=
EXTT8=
EXTT9=
EXTT10=
PLAYORDER=
